# xmcd
#
# Track frame offsets: 
#        150
#        16118
#        28879
#        51294
#        67523
#        82126
#        97914
#        109994
#        126300
#        150172
#        170420
#        188056
#        203982
#        217615
#        232336
#        245560
#        259825
#        273841
#        290730
#        302815
#        315557
#
# Disc length: 4354 seconds
#
# Revision: 0
# Processed by: cddbd v1.5.2PL0 Copyright (c) Steve Scherf et al.
# Submitted via: ExactAudioCopyFreeDBPlugin 1.0
#
DISCID=24110015
DTITLE=Jurie Els - Gospel
DYEAR=2003
DGENRE=Gospel
TTITLE0=Nagmaal Lied
TTITLE1=Gebed vir die Land
TTITLE2=Blessed Assurance
TTITLE3=Verbly jou in die Here
TTITLE4=Gee Vandag die Blomme
TTITLE5=Sewe Reenboe
TTITLE6=Wings of a Dove
TTITLE7=Die Lewnde Water
TTITLE8=Hierdie Kind
TTITLE9=Hoe Groot is U
TTITLE10=Give us Peace in Earth
TTITLE11=Ek hoor U roep
TTITLE12=My Bont jas
TTITLE13=May God Bless this Couple
TTITLE14=Lambertsbaai
TTITLE15=Jou groot Kaptein
TTITLE16=Daars 'n Dierbare Kruis
TTITLE17=Betlehemster
TTITLE18=Dankie
TTITLE19=Standing room Only
TTITLE20=Hy wil jou Vrede Gee
EXTD=
EXTT0=
EXTT1=
EXTT2=
EXTT3=
EXTT4=
EXTT5=
EXTT6=
EXTT7=
EXTT8=
EXTT9=
EXTT10=
EXTT11=
EXTT12=
EXTT13=
EXTT14=
EXTT15=
EXTT16=
EXTT17=
EXTT18=
EXTT19=
EXTT20=
PLAYORDER=
